<?xml version="1.0" standalone="no"?>
<!DOCTYPE svg PUBLIC "-//W3C//DTD SVG 20010904//EN"
 "http://www.w3.org/TR/2001/REC-SVG-20010904/DTD/svg10.dtd">
<svg version="1.0" xmlns="http://www.w3.org/2000/svg"
 width="512.000000pt" height="512.000000pt" viewBox="0 0 512.000000 512.000000"
 preserveAspectRatio="xMidYMid meet">
<metadata>
Created by potrace 1.11, written by Peter Selinger 2001-2013
</metadata>
<g transform="translate(0.000000,512.000000) scale(0.100000,-0.100000)"
fill="#000000" stroke="none">
<path d="M3167 5081 c-27 -9 -60 -26 -73 -38 -13 -12 -24 -19 -24 -15 0 4 -15
-16 -33 -43 -31 -46 -64 -117 -72 -155 -15 -68 -47 -222 -51 -250 -3 -19 -8
-38 -9 -41 -2 -3 -7 -28 -11 -55 -3 -27 -8 -52 -11 -57 -2 -4 -6 -20 -9 -35
-6 -38 -34 -182 -41 -212 -4 -14 -7 -32 -7 -40 -1 -8 -4 -19 -7 -25 -4 -5 -5
-18 -4 -27 2 -10 0 -18 -3 -18 -4 0 -8 -15 -9 -32 -1 -18 -6 -52 -12 -76 -6
-23 -14 -59 -17 -80 -3 -20 -9 -53 -14 -72 -10 -42 -22 -108 -23 -132 -1 -10
-4 -18 -8 -18 -4 0 -6 -8 -4 -17 1 -10 -1 -22 -5 -28 -7 -10 -8 -18 -12 -75
-1 -16 -6 -30 -11 -30 -5 0 -7 -9 -4 -20 3 -11 1 -20 -3 -20 -5 0 -9 -8 -9
-17 0 -10 -4 -36 -10 -57 -5 -22 -8 -44 -5 -48 3 -4 1 -8 -4 -8 -5 0 -9 -6 -9
-12 0 -15 -45 -160 -48 -156 -2 2 -5 46 -8 98 -4 52 -9 109 -12 125 -10 47
-43 116 -68 140 -23 23 -112 76 -125 74 -4 -1 -9 0 -12 1 -17 7 -127 6 -137
-3 -7 -5 -13 -7 -13 -3 0 3 -24 -4 -52 -15 -29 -12 -57 -22 -63 -24 -15 -3
-68 -24 -91 -36 -65 -33 -154 -157 -154 -216 0 -51 -19 -18 -34 60 -23 121
-22 118 -47 172 -23 46 -52 83 -91 113 -25 20 -118 52 -118 41 0 -6 -8 -5 -20
1 -14 8 -26 8 -41 -1 -17 -9 -20 -8 -14 2 5 8 4 10 -4 5 -6 -4 -23 -10 -38
-12 -15 -3 -33 -10 -40 -16 -7 -6 -13 -7 -13 -3 0 4 -25 -7 -55 -24 -30 -17
-55 -29 -55 -26 0 3 -26 -12 -58 -33 -50 -34 -126 -112 -127 -131 -2 -20 -18
-51 -26 -51 -6 0 -7 5 -4 10 3 6 2 10 -3 10 -5 0 -9 16 -10 35 -1 20 -4 40 -6
44 -3 4 -8 26 -11 47 -2 21 -7 49 -10 62 -3 12 -7 32 -10 45 -3 12 -7 36 -9
52 -3 17 -9 49 -14 72 -5 23 -7 44 -5 47 3 2 1 11 -3 18 -5 7 -10 22 -11 33
-3 24 -21 129 -29 170 -10 56 -17 100 -18 125 -1 14 -4 27 -8 30 -4 3 -9 26
-12 50 -3 25 -10 70 -16 100 -6 30 -13 73 -16 95 -3 22 -7 46 -10 54 -2 8 -7
30 -10 50 -13 81 -35 176 -44 185 -6 6 -10 17 -10 26 0 39 -116 141 -180 158
-65 16 -177 3 -211 -25 -9 -7 -19 -10 -22 -6 -4 3 -7 1 -7 -5 0 -7 -6 -12 -13
-12 -16 0 -76 -72 -96 -115 -15 -33 -19 -45 -25 -90 -3 -16 -5 -32 -6 -35 -6
-16 8 -187 25 -310 2 -19 7 -60 9 -90 3 -30 8 -66 10 -80 3 -14 7 -54 10 -90
3 -36 8 -90 12 -120 4 -30 7 -76 8 -102 1 -27 3 -48 6 -48 3 0 6 -15 6 -32 1
-18 5 -89 9 -158 9 -166 11 -536 2 -630 -3 -41 -13 -104 -22 -140 -8 -36 -18
-75 -20 -87 -3 -12 -10 -34 -15 -48 -5 -14 -7 -25 -4 -25 4 0 2 -6 -4 -12 -5
-7 -12 -26 -16 -43 -12 -64 -19 -99 -30 -165 -3 -14 -5 -25 -7 -25 -1 0 -3
-13 -4 -30 -2 -16 -4 -30 -5 -30 -2 0 -4 -13 -5 -30 -2 -16 -4 -30 -5 -30 -2
0 -6 -32 -13 -101 -2 -22 -7 -46 -11 -52 -4 -7 -2 -12 4 -12 6 0 8 -5 5 -10
-12 -19 -16 -103 -15 -320 1 -254 3 -320 11 -320 3 0 6 -10 6 -22 4 -72 7 -88
12 -88 4 0 6 -12 5 -27 -1 -16 1 -32 4 -38 3 -5 7 -16 8 -25 1 -13 11 -61 18
-95 5 -21 37 -131 43 -145 3 -8 7 -17 7 -20 13 -62 159 -340 179 -340 4 0 7
-5 7 -12 0 -15 11 -27 130 -146 52 -52 114 -108 139 -125 26 -17 48 -34 49
-39 2 -4 9 -8 16 -8 7 0 20 -8 29 -18 9 -10 32 -24 52 -32 19 -8 35 -17 35
-22 0 -4 5 -8 10 -8 6 0 22 -8 37 -17 14 -10 33 -18 41 -19 8 -2 18 -8 22 -14
4 -7 10 -11 14 -11 3 1 19 -5 35 -13 16 -9 31 -12 35 -9 3 4 6 1 6 -5 0 -7 3
-11 8 -10 4 0 15 -2 25 -5 9 -4 25 -10 35 -14 9 -3 19 -7 22 -8 3 -1 18 -7 34
-14 16 -6 36 -13 45 -15 9 -1 48 -12 86 -24 39 -11 84 -23 102 -25 17 -3 35
-7 40 -10 4 -3 31 -8 58 -11 77 -11 118 -17 145 -22 47 -10 385 -12 445 -3 33
4 75 9 93 11 18 1 36 6 38 10 3 5 9 6 14 3 5 -3 46 4 92 15 103 26 113 28 113
30 0 1 11 4 24 6 14 2 38 11 54 19 17 8 38 15 47 15 9 0 20 3 24 8 4 4 11 7
14 8 25 4 72 28 72 37 0 6 3 7 6 4 4 -3 26 5 50 19 24 14 44 22 44 17 0 -4 5
0 11 10 5 9 17 17 24 17 8 0 15 5 15 11 0 5 5 7 10 4 6 -3 10 -2 10 2 0 5 26
28 58 51 69 50 222 196 222 211 0 6 6 10 13 8 6 -1 11 4 10 10 -2 7 2 13 7 13
6 0 10 5 10 10 0 6 11 21 25 34 14 13 25 28 25 34 0 6 4 12 8 14 12 5 102 142
102 156 0 7 4 12 9 12 5 0 13 10 17 23 3 12 15 33 24 47 10 14 18 28 19 33 2
16 64 132 72 135 5 2 9 10 9 17 0 7 11 27 25 43 14 17 25 33 25 37 0 13 104
121 164 170 21 17 46 38 57 47 10 10 24 18 29 18 6 0 10 3 10 8 0 10 59 48 64
42 3 -3 11 3 18 12 14 17 65 50 108 69 14 6 33 18 42 26 10 9 18 12 18 7 0 -5
4 -4 8 2 6 9 106 60 237 119 28 13 82 38 120 56 39 18 72 33 75 34 8 1 76 33
160 74 76 37 187 132 175 151 -3 6 -1 10 5 10 6 0 8 5 5 10 -3 6 -2 10 3 10
10 0 11 8 13 83 3 122 -104 255 -251 310 -74 27 -197 41 -217 25 -9 -7 -13 -7
-13 1 0 7 -3 10 -7 8 -5 -3 -26 -8 -48 -12 -22 -4 -44 -8 -50 -9 -5 -1 -37 -8
-70 -15 -33 -7 -64 -16 -70 -19 -5 -4 -17 -8 -26 -9 -9 -1 -29 -8 -45 -14 -16
-7 -31 -13 -34 -14 -3 0 -15 -6 -26 -13 -12 -6 -24 -8 -28 -5 -3 3 -6 1 -6 -5
0 -7 -6 -12 -14 -12 -8 0 -22 -8 -32 -18 -10 -9 -19 -16 -21 -14 -8 6 -22 0
-43 -18 -13 -11 -29 -20 -37 -20 -7 0 -13 -4 -13 -10 0 -5 -6 -10 -14 -10 -8
0 -16 -3 -18 -8 -5 -13 -189 -128 -258 -162 -75 -36 -90 -41 -145 -45 -72 -5
-94 16 -144 135 -3 8 -6 32 -6 52 0 21 -4 38 -8 38 -5 0 -6 4 -3 8 2 4 7 44
11 87 3 44 8 100 10 125 10 107 16 157 20 188 21 162 32 237 39 292 3 19 8 57
12 84 3 27 7 56 9 65 1 9 6 41 10 71 3 30 8 66 10 80 2 14 6 48 10 75 3 28 8
57 10 65 2 8 6 40 10 71 3 31 8 67 10 79 2 12 7 48 11 79 3 31 8 65 11 76 2
11 6 36 9 55 8 69 12 96 23 180 7 47 14 96 16 110 3 14 7 48 10 75 3 28 7 66
10 85 3 19 8 55 11 80 3 25 7 56 10 70 7 39 17 133 16 153 0 9 2 17 6 17 4 0
7 12 8 28 3 76 10 142 14 142 3 0 5 18 5 40 0 22 -2 40 -5 40 -3 0 -6 17 -6
38 -2 57 -8 92 -14 92 -3 0 -11 15 -18 33 -21 57 -109 127 -178 142 -67 15
-170 13 -217 -4z"/>
</g>
</svg>
